<mxfile host="app.diagrams.net" agent="Mozilla/5.0 (Macintosh; Intel Mac OS X 10_15_7) AppleWebKit/605.1.15 (KHTML, like Gecko) Version/18.5 Safari/605.1.15" version="27.0.6">
  <diagram name="Page-1" id="H15xUyuj82uc5km4XfCG">
    <mxGraphModel dx="1238" dy="811" grid="1" gridSize="10" guides="1" tooltips="1" connect="1" arrows="1" fold="1" page="1" pageScale="1" pageWidth="896" pageHeight="768" math="0" shadow="0">
      <root>
        <mxCell id="0" />
        <mxCell id="1" parent="0" />
        <mxCell id="fqkR_vfwaO75XF3U8mRH-4" value="📦 Mail / 🏛️ Account" style="text;strokeColor=none;fillColor=none;html=1;fontSize=16;fontStyle=0;verticalAlign=middle;align=left;fontFamily=ui-monospace;fontColor=#666666;" parent="1" vertex="1">
          <mxGeometry x="23" y="20" width="250" height="40" as="geometry" />
        </mxCell>
        <mxCell id="fqkR_vfwaO75XF3U8mRH-71" value="" style="line;strokeWidth=2;html=1;fillColor=none;strokeColor=#66B2FF;fillStyle=dots;" parent="1" vertex="1">
          <mxGeometry x="163.5" y="275" width="45.5" height="10" as="geometry" />
        </mxCell>
        <mxCell id="fqkR_vfwaO75XF3U8mRH-72" value="" style="line;strokeWidth=2;direction=south;html=1;fillColor=none;strokeColor=#66B2FF;fillStyle=dots;" parent="1" vertex="1">
          <mxGeometry x="203" y="178" width="10" height="103" as="geometry" />
        </mxCell>
        <mxCell id="fqkR_vfwaO75XF3U8mRH-74" value="" style="line;strokeWidth=2;html=1;fillColor=none;strokeColor=#66B2FF;fillStyle=dots;" parent="1" vertex="1">
          <mxGeometry x="207" y="174" width="42.5" height="10" as="geometry" />
        </mxCell>
        <mxCell id="qTVmRo4E6Ufbof_tF9Q6-5" value="Authentication" style="swimlane;fontStyle=0;childLayout=stackLayout;horizontal=1;startSize=30;horizontalStack=0;resizeParent=1;resizeParentMax=0;resizeLast=0;collapsible=1;marginBottom=0;whiteSpace=wrap;html=1;" vertex="1" parent="1">
          <mxGeometry x="719.5" y="384" width="140" height="180" as="geometry" />
        </mxCell>
        <mxCell id="qTVmRo4E6Ufbof_tF9Q6-6" value="Password" style="text;strokeColor=none;fillColor=default;align=left;verticalAlign=middle;spacingLeft=4;spacingRight=4;overflow=hidden;points=[[0,0.5],[1,0.5]];portConstraint=eastwest;rotatable=0;whiteSpace=wrap;html=1;" vertex="1" parent="qTVmRo4E6Ufbof_tF9Q6-5">
          <mxGeometry y="30" width="140" height="30" as="geometry" />
        </mxCell>
        <mxCell id="qTVmRo4E6Ufbof_tF9Q6-7" value="Encrypted password" style="text;strokeColor=none;fillColor=default;align=left;verticalAlign=middle;spacingLeft=4;spacingRight=4;overflow=hidden;points=[[0,0.5],[1,0.5]];portConstraint=eastwest;rotatable=0;whiteSpace=wrap;html=1;" vertex="1" parent="qTVmRo4E6Ufbof_tF9Q6-5">
          <mxGeometry y="60" width="140" height="30" as="geometry" />
        </mxCell>
        <mxCell id="qTVmRo4E6Ufbof_tF9Q6-8" value="TLS certificate" style="text;strokeColor=none;fillColor=default;align=left;verticalAlign=middle;spacingLeft=4;spacingRight=4;overflow=hidden;points=[[0,0.5],[1,0.5]];portConstraint=eastwest;rotatable=0;whiteSpace=wrap;html=1;" vertex="1" parent="qTVmRo4E6Ufbof_tF9Q6-5">
          <mxGeometry y="90" width="140" height="30" as="geometry" />
        </mxCell>
        <mxCell id="qTVmRo4E6Ufbof_tF9Q6-9" value="OAuth 2" style="text;strokeColor=none;fillColor=default;align=left;verticalAlign=middle;spacingLeft=4;spacingRight=4;overflow=hidden;points=[[0,0.5],[1,0.5]];portConstraint=eastwest;rotatable=0;whiteSpace=wrap;html=1;" vertex="1" parent="qTVmRo4E6Ufbof_tF9Q6-5">
          <mxGeometry y="120" width="140" height="30" as="geometry" />
        </mxCell>
        <mxCell id="qTVmRo4E6Ufbof_tF9Q6-10" value="None" style="text;strokeColor=none;fillColor=default;align=left;verticalAlign=middle;spacingLeft=4;spacingRight=4;overflow=hidden;points=[[0,0.5],[1,0.5]];portConstraint=eastwest;rotatable=0;whiteSpace=wrap;html=1;" vertex="1" parent="qTVmRo4E6Ufbof_tF9Q6-5">
          <mxGeometry y="150" width="140" height="30" as="geometry" />
        </mxCell>
        <mxCell id="qTVmRo4E6Ufbof_tF9Q6-11" value="Connection Security" style="swimlane;fontStyle=0;childLayout=stackLayout;horizontal=1;startSize=30;horizontalStack=0;resizeParent=1;resizeParentMax=0;resizeLast=0;collapsible=1;marginBottom=0;whiteSpace=wrap;html=1;" vertex="1" parent="1">
          <mxGeometry x="719.5" y="244" width="140" height="120" as="geometry" />
        </mxCell>
        <mxCell id="qTVmRo4E6Ufbof_tF9Q6-12" value="STARTTLS" style="text;strokeColor=none;fillColor=default;align=left;verticalAlign=middle;spacingLeft=4;spacingRight=4;overflow=hidden;points=[[0,0.5],[1,0.5]];portConstraint=eastwest;rotatable=0;whiteSpace=wrap;html=1;" vertex="1" parent="qTVmRo4E6Ufbof_tF9Q6-11">
          <mxGeometry y="30" width="140" height="30" as="geometry" />
        </mxCell>
        <mxCell id="qTVmRo4E6Ufbof_tF9Q6-13" value="SSL/TLS" style="text;strokeColor=none;fillColor=default;align=left;verticalAlign=middle;spacingLeft=4;spacingRight=4;overflow=hidden;points=[[0,0.5],[1,0.5]];portConstraint=eastwest;rotatable=0;whiteSpace=wrap;html=1;" vertex="1" parent="qTVmRo4E6Ufbof_tF9Q6-11">
          <mxGeometry y="60" width="140" height="30" as="geometry" />
        </mxCell>
        <mxCell id="qTVmRo4E6Ufbof_tF9Q6-14" value="None" style="text;strokeColor=none;fillColor=default;align=left;verticalAlign=middle;spacingLeft=4;spacingRight=4;overflow=hidden;points=[[0,0.5],[1,0.5]];portConstraint=eastwest;rotatable=0;whiteSpace=wrap;html=1;" vertex="1" parent="qTVmRo4E6Ufbof_tF9Q6-11">
          <mxGeometry y="90" width="140" height="30" as="geometry" />
        </mxCell>
        <mxCell id="qTVmRo4E6Ufbof_tF9Q6-15" value="Incoming Server" style="swimlane;fontStyle=0;childLayout=stackLayout;horizontal=1;startSize=30;horizontalStack=0;resizeParent=1;resizeParentMax=0;resizeLast=0;collapsible=1;marginBottom=0;whiteSpace=wrap;html=1;" vertex="1" parent="1">
          <mxGeometry x="490" y="104" width="140" height="270" as="geometry" />
        </mxCell>
        <mxCell id="qTVmRo4E6Ufbof_tF9Q6-16" value="Incoming protocol" style="text;strokeColor=none;fillColor=default;align=left;verticalAlign=middle;spacingLeft=4;spacingRight=4;overflow=hidden;points=[[0,0.5],[1,0.5]];portConstraint=eastwest;rotatable=0;whiteSpace=wrap;html=1;" vertex="1" parent="qTVmRo4E6Ufbof_tF9Q6-15">
          <mxGeometry y="30" width="140" height="30" as="geometry" />
        </mxCell>
        <mxCell id="qTVmRo4E6Ufbof_tF9Q6-17" value="Connection security" style="text;strokeColor=none;fillColor=default;align=left;verticalAlign=middle;spacingLeft=4;spacingRight=4;overflow=hidden;points=[[0,0.5],[1,0.5]];portConstraint=eastwest;rotatable=0;whiteSpace=wrap;html=1;" vertex="1" parent="qTVmRo4E6Ufbof_tF9Q6-15">
          <mxGeometry y="60" width="140" height="30" as="geometry" />
        </mxCell>
        <mxCell id="qTVmRo4E6Ufbof_tF9Q6-18" value="Authentication" style="text;strokeColor=none;fillColor=default;align=left;verticalAlign=middle;spacingLeft=4;spacingRight=4;overflow=hidden;points=[[0,0.5],[1,0.5]];portConstraint=eastwest;rotatable=0;whiteSpace=wrap;html=1;" vertex="1" parent="qTVmRo4E6Ufbof_tF9Q6-15">
          <mxGeometry y="90" width="140" height="30" as="geometry" />
        </mxCell>
        <mxCell id="qTVmRo4E6Ufbof_tF9Q6-35" value="Host name" style="text;strokeColor=none;fillColor=default;align=left;verticalAlign=middle;spacingLeft=4;spacingRight=4;overflow=hidden;points=[[0,0.5],[1,0.5]];portConstraint=eastwest;rotatable=0;whiteSpace=wrap;html=1;" vertex="1" parent="qTVmRo4E6Ufbof_tF9Q6-15">
          <mxGeometry y="120" width="140" height="30" as="geometry" />
        </mxCell>
        <mxCell id="qTVmRo4E6Ufbof_tF9Q6-36" value="User name" style="text;strokeColor=none;fillColor=default;align=left;verticalAlign=middle;spacingLeft=4;spacingRight=4;overflow=hidden;points=[[0,0.5],[1,0.5]];portConstraint=eastwest;rotatable=0;whiteSpace=wrap;html=1;" vertex="1" parent="qTVmRo4E6Ufbof_tF9Q6-15">
          <mxGeometry y="150" width="140" height="30" as="geometry" />
        </mxCell>
        <mxCell id="qTVmRo4E6Ufbof_tF9Q6-37" value="Password" style="text;strokeColor=none;fillColor=default;align=left;verticalAlign=middle;spacingLeft=4;spacingRight=4;overflow=hidden;points=[[0,0.5],[1,0.5]];portConstraint=eastwest;rotatable=0;whiteSpace=wrap;html=1;" vertex="1" parent="qTVmRo4E6Ufbof_tF9Q6-15">
          <mxGeometry y="180" width="140" height="30" as="geometry" />
        </mxCell>
        <mxCell id="qTVmRo4E6Ufbof_tF9Q6-38" value="Port number" style="text;strokeColor=none;fillColor=default;align=left;verticalAlign=middle;spacingLeft=4;spacingRight=4;overflow=hidden;points=[[0,0.5],[1,0.5]];portConstraint=eastwest;rotatable=0;whiteSpace=wrap;html=1;" vertex="1" parent="qTVmRo4E6Ufbof_tF9Q6-15">
          <mxGeometry y="210" width="140" height="30" as="geometry" />
        </mxCell>
        <mxCell id="qTVmRo4E6Ufbof_tF9Q6-41" value="UUID" style="text;strokeColor=none;fillColor=default;align=left;verticalAlign=middle;spacingLeft=4;spacingRight=4;overflow=hidden;points=[[0,0.5],[1,0.5]];portConstraint=eastwest;rotatable=0;whiteSpace=wrap;html=1;" vertex="1" parent="qTVmRo4E6Ufbof_tF9Q6-15">
          <mxGeometry y="240" width="140" height="30" as="geometry" />
        </mxCell>
        <mxCell id="qTVmRo4E6Ufbof_tF9Q6-19" value="Incoming Protocol" style="swimlane;fontStyle=0;childLayout=stackLayout;horizontal=1;startSize=30;horizontalStack=0;resizeParent=1;resizeParentMax=0;resizeLast=0;collapsible=1;marginBottom=0;whiteSpace=wrap;html=1;" vertex="1" parent="1">
          <mxGeometry x="720" y="134" width="140" height="90" as="geometry" />
        </mxCell>
        <mxCell id="qTVmRo4E6Ufbof_tF9Q6-20" value="JMAP" style="text;strokeColor=none;fillColor=default;align=left;verticalAlign=middle;spacingLeft=4;spacingRight=4;overflow=hidden;points=[[0,0.5],[1,0.5]];portConstraint=eastwest;rotatable=0;whiteSpace=wrap;html=1;" vertex="1" parent="qTVmRo4E6Ufbof_tF9Q6-19">
          <mxGeometry y="30" width="140" height="30" as="geometry" />
        </mxCell>
        <mxCell id="qTVmRo4E6Ufbof_tF9Q6-21" value="IMAP" style="text;strokeColor=none;fillColor=default;align=left;verticalAlign=middle;spacingLeft=4;spacingRight=4;overflow=hidden;points=[[0,0.5],[1,0.5]];portConstraint=eastwest;rotatable=0;whiteSpace=wrap;html=1;" vertex="1" parent="qTVmRo4E6Ufbof_tF9Q6-19">
          <mxGeometry y="60" width="140" height="30" as="geometry" />
        </mxCell>
        <mxCell id="qTVmRo4E6Ufbof_tF9Q6-23" value="Outgoing Protocol" style="swimlane;fontStyle=0;childLayout=stackLayout;horizontal=1;startSize=30;horizontalStack=0;resizeParent=1;resizeParentMax=0;resizeLast=0;collapsible=1;marginBottom=0;whiteSpace=wrap;html=1;" vertex="1" parent="1">
          <mxGeometry x="720" y="582" width="140" height="60" as="geometry" />
        </mxCell>
        <mxCell id="qTVmRo4E6Ufbof_tF9Q6-24" value="SMTP" style="text;strokeColor=none;fillColor=default;align=left;verticalAlign=middle;spacingLeft=4;spacingRight=4;overflow=hidden;points=[[0,0.5],[1,0.5]];portConstraint=eastwest;rotatable=0;whiteSpace=wrap;html=1;" vertex="1" parent="qTVmRo4E6Ufbof_tF9Q6-23">
          <mxGeometry y="30" width="140" height="30" as="geometry" />
        </mxCell>
        <mxCell id="qTVmRo4E6Ufbof_tF9Q6-27" value="Outgoing Server" style="swimlane;fontStyle=0;childLayout=stackLayout;horizontal=1;startSize=30;horizontalStack=0;resizeParent=1;resizeParentMax=0;resizeLast=0;collapsible=1;marginBottom=0;whiteSpace=wrap;html=1;" vertex="1" parent="1">
          <mxGeometry x="490" y="394" width="140" height="270" as="geometry" />
        </mxCell>
        <mxCell id="qTVmRo4E6Ufbof_tF9Q6-28" value="Outgoing protocol" style="text;strokeColor=none;fillColor=default;align=left;verticalAlign=middle;spacingLeft=4;spacingRight=4;overflow=hidden;points=[[0,0.5],[1,0.5]];portConstraint=eastwest;rotatable=0;whiteSpace=wrap;html=1;" vertex="1" parent="qTVmRo4E6Ufbof_tF9Q6-27">
          <mxGeometry y="30" width="140" height="30" as="geometry" />
        </mxCell>
        <mxCell id="qTVmRo4E6Ufbof_tF9Q6-29" value="Connection security" style="text;strokeColor=none;fillColor=default;align=left;verticalAlign=middle;spacingLeft=4;spacingRight=4;overflow=hidden;points=[[0,0.5],[1,0.5]];portConstraint=eastwest;rotatable=0;whiteSpace=wrap;html=1;" vertex="1" parent="qTVmRo4E6Ufbof_tF9Q6-27">
          <mxGeometry y="60" width="140" height="30" as="geometry" />
        </mxCell>
        <mxCell id="qTVmRo4E6Ufbof_tF9Q6-30" value="Authentication" style="text;strokeColor=none;fillColor=default;align=left;verticalAlign=middle;spacingLeft=4;spacingRight=4;overflow=hidden;points=[[0,0.5],[1,0.5]];portConstraint=eastwest;rotatable=0;whiteSpace=wrap;html=1;" vertex="1" parent="qTVmRo4E6Ufbof_tF9Q6-27">
          <mxGeometry y="90" width="140" height="30" as="geometry" />
        </mxCell>
        <mxCell id="qTVmRo4E6Ufbof_tF9Q6-31" value="Host name" style="text;strokeColor=none;fillColor=default;align=left;verticalAlign=middle;spacingLeft=4;spacingRight=4;overflow=hidden;points=[[0,0.5],[1,0.5]];portConstraint=eastwest;rotatable=0;whiteSpace=wrap;html=1;" vertex="1" parent="qTVmRo4E6Ufbof_tF9Q6-27">
          <mxGeometry y="120" width="140" height="30" as="geometry" />
        </mxCell>
        <mxCell id="qTVmRo4E6Ufbof_tF9Q6-32" value="User name" style="text;strokeColor=none;fillColor=default;align=left;verticalAlign=middle;spacingLeft=4;spacingRight=4;overflow=hidden;points=[[0,0.5],[1,0.5]];portConstraint=eastwest;rotatable=0;whiteSpace=wrap;html=1;" vertex="1" parent="qTVmRo4E6Ufbof_tF9Q6-27">
          <mxGeometry y="150" width="140" height="30" as="geometry" />
        </mxCell>
        <mxCell id="qTVmRo4E6Ufbof_tF9Q6-33" value="Password" style="text;strokeColor=none;fillColor=default;align=left;verticalAlign=middle;spacingLeft=4;spacingRight=4;overflow=hidden;points=[[0,0.5],[1,0.5]];portConstraint=eastwest;rotatable=0;whiteSpace=wrap;html=1;" vertex="1" parent="qTVmRo4E6Ufbof_tF9Q6-27">
          <mxGeometry y="180" width="140" height="30" as="geometry" />
        </mxCell>
        <mxCell id="qTVmRo4E6Ufbof_tF9Q6-34" value="Port number" style="text;strokeColor=none;fillColor=default;align=left;verticalAlign=middle;spacingLeft=4;spacingRight=4;overflow=hidden;points=[[0,0.5],[1,0.5]];portConstraint=eastwest;rotatable=0;whiteSpace=wrap;html=1;" vertex="1" parent="qTVmRo4E6Ufbof_tF9Q6-27">
          <mxGeometry y="210" width="140" height="30" as="geometry" />
        </mxCell>
        <mxCell id="qTVmRo4E6Ufbof_tF9Q6-40" value="UUID" style="text;strokeColor=none;fillColor=default;align=left;verticalAlign=middle;spacingLeft=4;spacingRight=4;overflow=hidden;points=[[0,0.5],[1,0.5]];portConstraint=eastwest;rotatable=0;whiteSpace=wrap;html=1;" vertex="1" parent="qTVmRo4E6Ufbof_tF9Q6-27">
          <mxGeometry y="240" width="140" height="30" as="geometry" />
        </mxCell>
        <mxCell id="qTVmRo4E6Ufbof_tF9Q6-42" value="Account" style="swimlane;fontStyle=0;childLayout=stackLayout;horizontal=1;startSize=30;horizontalStack=0;resizeParent=1;resizeParentMax=0;resizeLast=0;collapsible=1;marginBottom=0;whiteSpace=wrap;html=1;" vertex="1" parent="1">
          <mxGeometry x="250" y="104" width="140" height="240" as="geometry" />
        </mxCell>
        <mxCell id="qTVmRo4E6Ufbof_tF9Q6-47" value="Name" style="text;strokeColor=none;fillColor=default;align=left;verticalAlign=middle;spacingLeft=4;spacingRight=4;overflow=hidden;points=[[0,0.5],[1,0.5]];portConstraint=eastwest;rotatable=0;whiteSpace=wrap;html=1;" vertex="1" parent="qTVmRo4E6Ufbof_tF9Q6-42">
          <mxGeometry y="30" width="140" height="30" as="geometry" />
        </mxCell>
        <mxCell id="qTVmRo4E6Ufbof_tF9Q6-43" value="Profile" style="text;strokeColor=none;fillColor=default;align=left;verticalAlign=middle;spacingLeft=4;spacingRight=4;overflow=hidden;points=[[0,0.5],[1,0.5]];portConstraint=eastwest;rotatable=0;whiteSpace=wrap;html=1;" vertex="1" parent="qTVmRo4E6Ufbof_tF9Q6-42">
          <mxGeometry y="60" width="140" height="30" as="geometry" />
        </mxCell>
        <mxCell id="qTVmRo4E6Ufbof_tF9Q6-69" value="Settings" style="text;strokeColor=none;fillColor=default;align=left;verticalAlign=middle;spacingLeft=4;spacingRight=4;overflow=hidden;points=[[0,0.5],[1,0.5]];portConstraint=eastwest;rotatable=0;whiteSpace=wrap;html=1;" vertex="1" parent="qTVmRo4E6Ufbof_tF9Q6-42">
          <mxGeometry y="90" width="140" height="30" as="geometry" />
        </mxCell>
        <mxCell id="qTVmRo4E6Ufbof_tF9Q6-44" value="Incoming server" style="text;strokeColor=none;fillColor=default;align=left;verticalAlign=middle;spacingLeft=4;spacingRight=4;overflow=hidden;points=[[0,0.5],[1,0.5]];portConstraint=eastwest;rotatable=0;whiteSpace=wrap;html=1;" vertex="1" parent="qTVmRo4E6Ufbof_tF9Q6-42">
          <mxGeometry y="120" width="140" height="30" as="geometry" />
        </mxCell>
        <mxCell id="qTVmRo4E6Ufbof_tF9Q6-45" value="Outgoing server[s]" style="text;strokeColor=none;fillColor=default;align=left;verticalAlign=middle;spacingLeft=4;spacingRight=4;overflow=hidden;points=[[0,0.5],[1,0.5]];portConstraint=eastwest;rotatable=0;whiteSpace=wrap;html=1;" vertex="1" parent="qTVmRo4E6Ufbof_tF9Q6-42">
          <mxGeometry y="150" width="140" height="30" as="geometry" />
        </mxCell>
        <mxCell id="qTVmRo4E6Ufbof_tF9Q6-46" value="Identities" style="text;strokeColor=none;fillColor=default;align=left;verticalAlign=middle;spacingLeft=4;spacingRight=4;overflow=hidden;points=[[0,0.5],[1,0.5]];portConstraint=eastwest;rotatable=0;whiteSpace=wrap;html=1;" vertex="1" parent="qTVmRo4E6Ufbof_tF9Q6-42">
          <mxGeometry y="180" width="140" height="30" as="geometry" />
        </mxCell>
        <mxCell id="qTVmRo4E6Ufbof_tF9Q6-48" value="UUID" style="text;strokeColor=none;fillColor=default;align=left;verticalAlign=middle;spacingLeft=4;spacingRight=4;overflow=hidden;points=[[0,0.5],[1,0.5]];portConstraint=eastwest;rotatable=0;whiteSpace=wrap;html=1;" vertex="1" parent="qTVmRo4E6Ufbof_tF9Q6-42">
          <mxGeometry y="210" width="140" height="30" as="geometry" />
        </mxCell>
        <mxCell id="qTVmRo4E6Ufbof_tF9Q6-49" value="Identity" style="swimlane;fontStyle=0;childLayout=stackLayout;horizontal=1;startSize=30;horizontalStack=0;resizeParent=1;resizeParentMax=0;resizeLast=0;collapsible=1;marginBottom=0;whiteSpace=wrap;html=1;" vertex="1" parent="1">
          <mxGeometry x="250" y="434" width="140" height="210" as="geometry" />
        </mxCell>
        <mxCell id="qTVmRo4E6Ufbof_tF9Q6-50" value="Name" style="text;strokeColor=none;fillColor=default;align=left;verticalAlign=middle;spacingLeft=4;spacingRight=4;overflow=hidden;points=[[0,0.5],[1,0.5]];portConstraint=eastwest;rotatable=0;whiteSpace=wrap;html=1;" vertex="1" parent="qTVmRo4E6Ufbof_tF9Q6-49">
          <mxGeometry y="30" width="140" height="30" as="geometry" />
        </mxCell>
        <mxCell id="qTVmRo4E6Ufbof_tF9Q6-54" value="Description" style="text;strokeColor=none;fillColor=default;align=left;verticalAlign=middle;spacingLeft=4;spacingRight=4;overflow=hidden;points=[[0,0.5],[1,0.5]];portConstraint=eastwest;rotatable=0;whiteSpace=wrap;html=1;" vertex="1" parent="qTVmRo4E6Ufbof_tF9Q6-49">
          <mxGeometry y="60" width="140" height="30" as="geometry" />
        </mxCell>
        <mxCell id="qTVmRo4E6Ufbof_tF9Q6-51" value="Email address" style="text;strokeColor=none;fillColor=default;align=left;verticalAlign=middle;spacingLeft=4;spacingRight=4;overflow=hidden;points=[[0,0.5],[1,0.5]];portConstraint=eastwest;rotatable=0;whiteSpace=wrap;html=1;" vertex="1" parent="qTVmRo4E6Ufbof_tF9Q6-49">
          <mxGeometry y="90" width="140" height="30" as="geometry" />
        </mxCell>
        <mxCell id="qTVmRo4E6Ufbof_tF9Q6-52" value="Signature" style="text;strokeColor=none;fillColor=default;align=left;verticalAlign=middle;spacingLeft=4;spacingRight=4;overflow=hidden;points=[[0,0.5],[1,0.5]];portConstraint=eastwest;rotatable=0;whiteSpace=wrap;html=1;" vertex="1" parent="qTVmRo4E6Ufbof_tF9Q6-49">
          <mxGeometry y="120" width="140" height="30" as="geometry" />
        </mxCell>
        <mxCell id="qTVmRo4E6Ufbof_tF9Q6-53" value="Reply to" style="text;strokeColor=none;fillColor=default;align=left;verticalAlign=middle;spacingLeft=4;spacingRight=4;overflow=hidden;points=[[0,0.5],[1,0.5]];portConstraint=eastwest;rotatable=0;whiteSpace=wrap;html=1;" vertex="1" parent="qTVmRo4E6Ufbof_tF9Q6-49">
          <mxGeometry y="150" width="140" height="30" as="geometry" />
        </mxCell>
        <mxCell id="qTVmRo4E6Ufbof_tF9Q6-55" value="UUID" style="text;strokeColor=none;fillColor=default;align=left;verticalAlign=middle;spacingLeft=4;spacingRight=4;overflow=hidden;points=[[0,0.5],[1,0.5]];portConstraint=eastwest;rotatable=0;whiteSpace=wrap;html=1;" vertex="1" parent="qTVmRo4E6Ufbof_tF9Q6-49">
          <mxGeometry y="180" width="140" height="30" as="geometry" />
        </mxCell>
        <mxCell id="qTVmRo4E6Ufbof_tF9Q6-56" value="Profile" style="swimlane;fontStyle=0;childLayout=stackLayout;horizontal=1;startSize=30;horizontalStack=0;resizeParent=1;resizeParentMax=0;resizeLast=0;collapsible=1;marginBottom=0;whiteSpace=wrap;html=1;" vertex="1" parent="1">
          <mxGeometry x="23" y="264" width="140" height="150" as="geometry" />
        </mxCell>
        <mxCell id="qTVmRo4E6Ufbof_tF9Q6-57" value="Name" style="text;strokeColor=none;fillColor=default;align=left;verticalAlign=middle;spacingLeft=4;spacingRight=4;overflow=hidden;points=[[0,0.5],[1,0.5]];portConstraint=eastwest;rotatable=0;whiteSpace=wrap;html=1;" vertex="1" parent="qTVmRo4E6Ufbof_tF9Q6-56">
          <mxGeometry y="30" width="140" height="30" as="geometry" />
        </mxCell>
        <mxCell id="qTVmRo4E6Ufbof_tF9Q6-58" value="Accent color" style="text;strokeColor=none;fillColor=default;align=left;verticalAlign=middle;spacingLeft=4;spacingRight=4;overflow=hidden;points=[[0,0.5],[1,0.5]];portConstraint=eastwest;rotatable=0;whiteSpace=wrap;html=1;" vertex="1" parent="qTVmRo4E6Ufbof_tF9Q6-56">
          <mxGeometry y="60" width="140" height="30" as="geometry" />
        </mxCell>
        <mxCell id="qTVmRo4E6Ufbof_tF9Q6-64" value="Avatar" style="text;strokeColor=none;fillColor=default;align=left;verticalAlign=middle;spacingLeft=4;spacingRight=4;overflow=hidden;points=[[0,0.5],[1,0.5]];portConstraint=eastwest;rotatable=0;whiteSpace=wrap;html=1;" vertex="1" parent="qTVmRo4E6Ufbof_tF9Q6-56">
          <mxGeometry y="90" width="140" height="30" as="geometry" />
        </mxCell>
        <mxCell id="qTVmRo4E6Ufbof_tF9Q6-59" value="UUID" style="text;strokeColor=none;fillColor=default;align=left;verticalAlign=middle;spacingLeft=4;spacingRight=4;overflow=hidden;points=[[0,0.5],[1,0.5]];portConstraint=eastwest;rotatable=0;whiteSpace=wrap;html=1;" vertex="1" parent="qTVmRo4E6Ufbof_tF9Q6-56">
          <mxGeometry y="120" width="140" height="30" as="geometry" />
        </mxCell>
        <mxCell id="qTVmRo4E6Ufbof_tF9Q6-60" value="Avatar" style="swimlane;fontStyle=0;childLayout=stackLayout;horizontal=1;startSize=30;horizontalStack=0;resizeParent=1;resizeParentMax=0;resizeLast=0;collapsible=1;marginBottom=0;whiteSpace=wrap;html=1;fillStyle=auto;" vertex="1" parent="1">
          <mxGeometry x="23" y="124" width="140" height="120" as="geometry" />
        </mxCell>
        <mxCell id="qTVmRo4E6Ufbof_tF9Q6-62" value="Image" style="text;strokeColor=none;fillColor=default;align=left;verticalAlign=middle;spacingLeft=4;spacingRight=4;overflow=hidden;points=[[0,0.5],[1,0.5]];portConstraint=eastwest;rotatable=0;whiteSpace=wrap;html=1;" vertex="1" parent="qTVmRo4E6Ufbof_tF9Q6-60">
          <mxGeometry y="30" width="140" height="30" as="geometry" />
        </mxCell>
        <mxCell id="qTVmRo4E6Ufbof_tF9Q6-61" value="Monogram" style="text;strokeColor=none;fillColor=default;align=left;verticalAlign=middle;spacingLeft=4;spacingRight=4;overflow=hidden;points=[[0,0.5],[1,0.5]];portConstraint=eastwest;rotatable=0;whiteSpace=wrap;html=1;" vertex="1" parent="qTVmRo4E6Ufbof_tF9Q6-60">
          <mxGeometry y="60" width="140" height="30" as="geometry" />
        </mxCell>
        <mxCell id="qTVmRo4E6Ufbof_tF9Q6-63" value="Icon" style="text;strokeColor=none;fillColor=default;align=left;verticalAlign=middle;spacingLeft=4;spacingRight=4;overflow=hidden;points=[[0,0.5],[1,0.5]];portConstraint=eastwest;rotatable=0;whiteSpace=wrap;html=1;" vertex="1" parent="qTVmRo4E6Ufbof_tF9Q6-60">
          <mxGeometry y="90" width="140" height="30" as="geometry" />
        </mxCell>
        <mxCell id="qTVmRo4E6Ufbof_tF9Q6-65" value="Settings" style="swimlane;fontStyle=0;childLayout=stackLayout;horizontal=1;startSize=30;horizontalStack=0;resizeParent=1;resizeParentMax=0;resizeLast=0;collapsible=1;marginBottom=0;whiteSpace=wrap;html=1;" vertex="1" parent="1">
          <mxGeometry x="23" y="434" width="140" height="210" as="geometry" />
        </mxCell>
        <mxCell id="qTVmRo4E6Ufbof_tF9Q6-66" value="Reading" style="text;strokeColor=none;fillColor=default;align=left;verticalAlign=middle;spacingLeft=4;spacingRight=4;overflow=hidden;points=[[0,0.5],[1,0.5]];portConstraint=eastwest;rotatable=0;whiteSpace=wrap;html=1;" vertex="1" parent="qTVmRo4E6Ufbof_tF9Q6-65">
          <mxGeometry y="30" width="140" height="30" as="geometry" />
        </mxCell>
        <mxCell id="qTVmRo4E6Ufbof_tF9Q6-70" value="Fetching" style="text;strokeColor=none;fillColor=default;align=left;verticalAlign=middle;spacingLeft=4;spacingRight=4;overflow=hidden;points=[[0,0.5],[1,0.5]];portConstraint=eastwest;rotatable=0;whiteSpace=wrap;html=1;" vertex="1" parent="qTVmRo4E6Ufbof_tF9Q6-65">
          <mxGeometry y="60" width="140" height="30" as="geometry" />
        </mxCell>
        <mxCell id="qTVmRo4E6Ufbof_tF9Q6-71" value="Sending" style="text;strokeColor=none;fillColor=default;align=left;verticalAlign=middle;spacingLeft=4;spacingRight=4;overflow=hidden;points=[[0,0.5],[1,0.5]];portConstraint=eastwest;rotatable=0;whiteSpace=wrap;html=1;" vertex="1" parent="qTVmRo4E6Ufbof_tF9Q6-65">
          <mxGeometry y="90" width="140" height="30" as="geometry" />
        </mxCell>
        <mxCell id="qTVmRo4E6Ufbof_tF9Q6-67" value="Folders" style="text;strokeColor=none;fillColor=default;align=left;verticalAlign=middle;spacingLeft=4;spacingRight=4;overflow=hidden;points=[[0,0.5],[1,0.5]];portConstraint=eastwest;rotatable=0;whiteSpace=wrap;html=1;" vertex="1" parent="qTVmRo4E6Ufbof_tF9Q6-65">
          <mxGeometry y="120" width="140" height="30" as="geometry" />
        </mxCell>
        <mxCell id="qTVmRo4E6Ufbof_tF9Q6-68" value="Notifications" style="text;strokeColor=none;fillColor=default;align=left;verticalAlign=middle;spacingLeft=4;spacingRight=4;overflow=hidden;points=[[0,0.5],[1,0.5]];portConstraint=eastwest;rotatable=0;whiteSpace=wrap;html=1;" vertex="1" parent="qTVmRo4E6Ufbof_tF9Q6-65">
          <mxGeometry y="150" width="140" height="30" as="geometry" />
        </mxCell>
        <mxCell id="qTVmRo4E6Ufbof_tF9Q6-74" value="&lt;span style=&quot;color: rgb(179, 179, 179);&quot;&gt;Encryption&lt;/span&gt;" style="text;strokeColor=none;fillColor=default;align=left;verticalAlign=middle;spacingLeft=4;spacingRight=4;overflow=hidden;points=[[0,0.5],[1,0.5]];portConstraint=eastwest;rotatable=0;whiteSpace=wrap;html=1;" vertex="1" parent="qTVmRo4E6Ufbof_tF9Q6-65">
          <mxGeometry y="180" width="140" height="30" as="geometry" />
        </mxCell>
        <mxCell id="qTVmRo4E6Ufbof_tF9Q6-75" value="" style="line;strokeWidth=2;html=1;fillColor=none;strokeColor=#66B2FF;fillStyle=dots;" vertex="1" parent="1">
          <mxGeometry x="70" y="364" width="122" height="10" as="geometry" />
        </mxCell>
        <mxCell id="qTVmRo4E6Ufbof_tF9Q6-76" value="" style="line;strokeWidth=2;direction=south;html=1;fillColor=none;strokeColor=#66B2FF;fillStyle=dots;" vertex="1" parent="1">
          <mxGeometry x="186" y="144" width="10" height="226" as="geometry" />
        </mxCell>
        <mxCell id="qTVmRo4E6Ufbof_tF9Q6-77" value="" style="line;strokeWidth=2;html=1;fillColor=none;strokeColor=#66B2FF;fillStyle=dots;" vertex="1" parent="1">
          <mxGeometry x="163.5" y="140" width="26.5" height="10" as="geometry" />
        </mxCell>
        <mxCell id="qTVmRo4E6Ufbof_tF9Q6-78" value="" style="line;strokeWidth=2;html=1;fillColor=none;strokeColor=#66B2FF;fillStyle=dots;" vertex="1" parent="1">
          <mxGeometry x="163.5" y="446" width="61.5" height="10" as="geometry" />
        </mxCell>
        <mxCell id="qTVmRo4E6Ufbof_tF9Q6-79" value="" style="line;strokeWidth=2;direction=south;html=1;fillColor=none;strokeColor=#66B2FF;fillStyle=dots;" vertex="1" parent="1">
          <mxGeometry x="219" y="208" width="10" height="243.5" as="geometry" />
        </mxCell>
        <mxCell id="qTVmRo4E6Ufbof_tF9Q6-80" value="" style="line;strokeWidth=2;html=1;fillColor=none;strokeColor=#66B2FF;fillStyle=dots;" vertex="1" parent="1">
          <mxGeometry x="223" y="204" width="26.5" height="10" as="geometry" />
        </mxCell>
        <mxCell id="qTVmRo4E6Ufbof_tF9Q6-87" value="" style="line;strokeWidth=2;html=1;fillColor=none;strokeColor=#66B2FF;fillStyle=dots;" vertex="1" parent="1">
          <mxGeometry x="390.5" y="444" width="19" height="10" as="geometry" />
        </mxCell>
        <mxCell id="qTVmRo4E6Ufbof_tF9Q6-88" value="" style="line;strokeWidth=2;direction=south;html=1;fillColor=none;strokeColor=#66B2FF;fillStyle=dots;" vertex="1" parent="1">
          <mxGeometry x="404" y="300" width="10" height="150" as="geometry" />
        </mxCell>
        <mxCell id="qTVmRo4E6Ufbof_tF9Q6-89" value="" style="line;strokeWidth=2;html=1;fillColor=none;strokeColor=#66B2FF;fillStyle=dots;" vertex="1" parent="1">
          <mxGeometry x="310" y="296" width="100" height="10" as="geometry" />
        </mxCell>
        <mxCell id="qTVmRo4E6Ufbof_tF9Q6-90" value="" style="line;strokeWidth=2;html=1;fillColor=none;strokeColor=#66B2FF;fillStyle=dots;" vertex="1" parent="1">
          <mxGeometry x="360" y="265" width="100" height="10" as="geometry" />
        </mxCell>
        <mxCell id="qTVmRo4E6Ufbof_tF9Q6-91" value="" style="line;strokeWidth=2;html=1;fillColor=none;strokeColor=#66B2FF;fillStyle=dots;" vertex="1" parent="1">
          <mxGeometry x="347" y="234" width="86" height="10" as="geometry" />
        </mxCell>
        <mxCell id="qTVmRo4E6Ufbof_tF9Q6-92" value="" style="line;strokeWidth=2;direction=south;html=1;fillColor=none;strokeColor=#66B2FF;fillStyle=dots;" vertex="1" parent="1">
          <mxGeometry x="427" y="118" width="10" height="122" as="geometry" />
        </mxCell>
        <mxCell id="qTVmRo4E6Ufbof_tF9Q6-93" value="" style="line;strokeWidth=2;html=1;fillColor=none;strokeColor=#66B2FF;fillStyle=dots;" vertex="1" parent="1">
          <mxGeometry x="431" y="114" width="58.5" height="10" as="geometry" />
        </mxCell>
        <mxCell id="qTVmRo4E6Ufbof_tF9Q6-94" value="" style="line;strokeWidth=2;direction=south;html=1;fillColor=none;strokeColor=#66B2FF;fillStyle=dots;" vertex="1" parent="1">
          <mxGeometry x="454.25" y="269" width="10" height="141" as="geometry" />
        </mxCell>
        <mxCell id="qTVmRo4E6Ufbof_tF9Q6-95" value="" style="line;strokeWidth=2;html=1;fillColor=none;strokeColor=#66B2FF;fillStyle=dots;" vertex="1" parent="1">
          <mxGeometry x="458.5" y="404" width="31" height="10" as="geometry" />
        </mxCell>
        <mxCell id="qTVmRo4E6Ufbof_tF9Q6-96" value="" style="line;strokeWidth=2;html=1;fillColor=none;strokeColor=#66B2FF;fillStyle=dots;" vertex="1" parent="1">
          <mxGeometry x="596" y="144" width="123.5" height="10" as="geometry" />
        </mxCell>
        <mxCell id="qTVmRo4E6Ufbof_tF9Q6-97" value="" style="line;strokeWidth=2;html=1;fillColor=none;strokeColor=#66B2FF;fillStyle=dots;" vertex="1" parent="1">
          <mxGeometry x="594" y="435" width="112" height="10" as="geometry" />
        </mxCell>
        <mxCell id="qTVmRo4E6Ufbof_tF9Q6-98" value="" style="line;strokeWidth=2;direction=south;html=1;fillColor=none;strokeColor=#66B2FF;fillStyle=dots;" vertex="1" parent="1">
          <mxGeometry x="700.25" y="439" width="10" height="160" as="geometry" />
        </mxCell>
        <mxCell id="qTVmRo4E6Ufbof_tF9Q6-99" value="" style="line;strokeWidth=2;html=1;fillColor=none;strokeColor=#66B2FF;fillStyle=dots;" vertex="1" parent="1">
          <mxGeometry x="704.5" y="593" width="15" height="10" as="geometry" />
        </mxCell>
        <mxCell id="qTVmRo4E6Ufbof_tF9Q6-100" value="" style="line;strokeWidth=2;html=1;fillColor=none;strokeColor=#66B2FF;fillStyle=dots;" vertex="1" parent="1">
          <mxGeometry x="607" y="175" width="71" height="10" as="geometry" />
        </mxCell>
        <mxCell id="qTVmRo4E6Ufbof_tF9Q6-101" value="" style="line;strokeWidth=2;direction=south;html=1;fillColor=none;strokeColor=#66B2FF;fillStyle=dots;" vertex="1" parent="1">
          <mxGeometry x="672.5" y="179" width="10" height="293" as="geometry" />
        </mxCell>
        <mxCell id="qTVmRo4E6Ufbof_tF9Q6-102" value="" style="line;strokeWidth=2;html=1;fillColor=none;strokeColor=#66B2FF;fillStyle=dots;" vertex="1" parent="1">
          <mxGeometry x="676.5" y="255" width="42.5" height="10" as="geometry" />
        </mxCell>
        <mxCell id="qTVmRo4E6Ufbof_tF9Q6-104" value="" style="line;strokeWidth=2;html=1;fillColor=none;strokeColor=#66B2FF;fillStyle=dots;" vertex="1" parent="1">
          <mxGeometry x="607.5" y="466" width="71" height="10" as="geometry" />
        </mxCell>
        <mxCell id="qTVmRo4E6Ufbof_tF9Q6-105" value="" style="line;strokeWidth=2;html=1;fillColor=none;strokeColor=#66B2FF;fillStyle=dots;" vertex="1" parent="1">
          <mxGeometry x="580" y="204" width="71" height="10" as="geometry" />
        </mxCell>
        <mxCell id="qTVmRo4E6Ufbof_tF9Q6-106" value="" style="line;strokeWidth=2;direction=south;html=1;fillColor=none;strokeColor=#66B2FF;fillStyle=dots;" vertex="1" parent="1">
          <mxGeometry x="645.5" y="208" width="10" height="293" as="geometry" />
        </mxCell>
        <mxCell id="qTVmRo4E6Ufbof_tF9Q6-107" value="" style="line;strokeWidth=2;html=1;fillColor=none;strokeColor=#66B2FF;fillStyle=dots;" vertex="1" parent="1">
          <mxGeometry x="580.5" y="495" width="71" height="10" as="geometry" />
        </mxCell>
        <mxCell id="qTVmRo4E6Ufbof_tF9Q6-108" value="" style="line;strokeWidth=2;html=1;fillColor=none;strokeColor=#66B2FF;fillStyle=dots;" vertex="1" parent="1">
          <mxGeometry x="650" y="395" width="69" height="10" as="geometry" />
        </mxCell>
      </root>
    </mxGraphModel>
  </diagram>
</mxfile>
